# Blender v3.3.1 OBJ File: 'untitled.blend'
# www.blender.org
mtllib halfmesh.mtl
o Sphere
v 0.000000 0.000000 -0.978453
v 0.137950 0.707107 -0.671973
v 0.180240 0.382683 -0.884580
v 0.074658 0.980785 -0.158693
v 0.146447 0.923880 -0.332006
v 0.353553 0.382683 -0.832006
v 0.382683 0.000000 -0.902332
v 0.212608 0.923880 -0.296643
v 0.308658 0.831470 -0.440393
v 0.392847 0.707107 -0.566391
v 0.513280 0.382683 -0.746631
v 0.392847 0.831470 -0.371300
v 0.500000 0.707107 -0.478453
v 0.653281 0.382683 -0.631734
v 0.707107 0.000000 -0.685560
v 0.587938 0.707107 -0.371300
v 0.691342 0.555570 -0.440393
v 0.768178 0.555570 -0.296642
v 0.853553 0.382683 -0.332006
v 0.923879 0.000000 -0.361136
v 0.544895 0.831470 -0.086839
v 0.815493 0.555570 -0.140664
v 0.906127 0.382683 -0.158693
v 0.961940 0.195090 -0.169795
v 0.195090 0.980785 0.021547
v 0.382683 0.923880 0.021547
v 0.980785 0.195090 0.021547
v 1.000000 0.000000 0.021547
v 0.375330 0.923880 0.096205
v 0.544895 0.831470 0.129933
v 0.693520 0.707107 0.159497
v 0.815493 0.555570 0.183759
v 0.906127 0.382683 0.201787
v 0.961940 0.195090 0.212889
v 0.980785 0.000000 0.216638
v 0.461940 0.831470 0.330205
v 0.587938 0.707107 0.414394
v 0.691341 0.555570 0.483487
v 0.768178 0.382683 0.534827
v 0.815493 0.195090 0.566442
v 0.831469 0.000000 0.577117
v 0.137950 0.980785 0.159497
v 0.270598 0.923880 0.292145
v 0.212607 0.923880 0.339737
v 0.308658 0.831470 0.483487
v 0.392847 0.707107 0.609485
v 0.461940 0.555570 0.712889
v 0.544895 0.195090 0.837040
v 0.555570 0.000000 0.853016
v 0.270598 0.707107 0.674828
v 0.318189 0.555570 0.789725
v 0.137950 0.707107 0.715067
v 0.162212 0.555570 0.837040
v 0.180240 0.382683 0.927674
v 0.191342 0.195090 0.983487
v 0.195090 0.000000 1.002332
v 0.000000 0.980785 0.216637
v 0.000000 0.923880 0.404230
v -0.074658 0.923880 0.396877
v -0.108386 0.831470 0.566442
v -0.137950 0.707107 0.715067
v -0.162212 0.555570 0.837040
v -0.180240 0.382683 0.927674
v -0.191342 0.195090 0.983486
v -0.195091 0.000000 1.002332
v -0.461940 0.555570 0.712888
v -0.544895 0.195090 0.837040
v -0.555570 0.000000 0.853016
v -0.270598 0.923880 0.292145
v -0.392847 0.831470 0.414394
v -0.500000 0.707107 0.521547
v -0.587938 0.555570 0.609484
v -0.461939 0.831470 0.330205
v -0.587938 0.707107 0.414394
v -0.691342 0.555570 0.483487
v -0.815493 0.195090 0.566442
v -0.831469 0.000000 0.577116
v -0.180240 0.980785 0.096205
v -0.353553 0.923880 0.167994
v -0.653281 0.707107 0.292145
v -0.768177 0.555570 0.339736
v -0.544895 0.831470 0.129933
v -0.693520 0.707107 0.159497
v -0.815493 0.555570 0.183759
v -0.961939 0.195090 0.212888
v -0.980784 0.000000 0.216637
v -0.382683 0.923880 0.021547
v -0.555570 0.831470 0.021547
v -0.707107 0.707107 0.021547
v -0.831469 0.555570 0.021547
v -0.815493 0.555570 -0.140665
v -0.961939 0.195090 -0.169795
v -0.980784 0.000000 -0.173543
v -0.513279 0.831470 -0.191060
v -0.768177 0.555570 -0.296643
v -0.906127 0.195090 -0.353783
v -0.923878 0.000000 -0.361136
v -0.691341 0.555570 -0.440393
v -0.815493 0.195090 -0.523348
v -0.392847 0.831470 -0.371300
v -0.587937 0.555570 -0.566390
v -0.693519 0.195090 -0.671973
v -0.707106 0.000000 -0.685559
v -0.108386 0.980785 -0.140664
v -0.212607 0.923880 -0.296642
v -0.308658 0.831470 -0.440392
v -0.461939 0.555570 -0.669794
v -0.544895 0.195090 -0.793946
v -0.212607 0.831470 -0.491732
v -0.270598 0.707107 -0.631734
v -0.318189 0.555570 -0.746630
v -0.353553 0.382683 -0.832006
v -0.375330 0.195090 -0.884580
v -0.382683 0.000000 -0.902332
v 0.000000 0.923880 -0.361136
v 0.000000 0.707107 -0.685560
v 0.000000 0.382683 -0.902332
vt 0.218750 0.687500
vt 0.218750 0.625000
vt 0.281250 0.625000
vt 0.281250 0.687500
vt 0.281250 0.750000
vt 0.218750 0.750000
vt 0.375000 0.875000
vt 0.343750 0.875000
vt 0.343750 0.812500
vt 0.406250 0.812500
vt 0.468750 0.812500
vt 0.468750 0.875000
vt 0.500000 0.875000
vt 0.500000 0.937500
vt 0.375000 0.937500
vt 0.843750 0.937500
vt 0.687500 0.937500
vt 0.687500 0.875000
vt 0.750000 0.875000
vt 0.843750 0.875000
vt 0.156250 0.687500
vt 0.156250 0.562500
vt 0.218750 0.562500
vt 0.343750 0.750000
vt 0.312500 0.750000
vt 0.312500 0.687500
vt 0.343750 0.687500
vt 0.406250 0.687500
vt 0.406250 0.750000
vt 0.750000 0.500000
vt 0.812500 0.500000
vt 0.812500 0.562500
vt 0.812500 0.625000
vt 0.750000 0.625000
vt 0.843750 0.562500
vt 0.843750 0.687500
vt 0.812500 0.687500
vt 0.406250 0.562500
vt 0.343750 0.562500
vt 0.343750 0.500000
vt 0.406250 0.500000
vt 0.468750 0.500000
vt 0.468750 0.562500
vt 0.468750 0.625000
vt 0.406250 0.625000
vt 0.031250 0.750000
vt 0.000000 0.750000
vt 0.000000 0.687500
vt 0.031250 0.687500
vt 0.062500 0.687500
vt 0.062500 0.750000
vt 0.250000 0.875000
vt 0.218750 0.875000
vt 0.218750 0.812500
vt 0.250000 0.937500
vt 0.281250 0.562500
vt 0.281250 0.500000
vt 0.968750 0.687500
vt 0.968750 0.562500
vt 0.031250 0.562500
vt 1.000000 0.687500
vt 0.531250 0.562500
vt 0.500000 0.562500
vt 0.500000 0.500000
vt 0.562500 0.500000
vt 0.562500 0.625000
vt 0.531250 0.625000
vt 0.812500 0.750000
vt 0.750000 0.750000
vt 0.718750 0.750000
vt 0.718750 0.625000
vt 0.906250 0.687500
vt 0.906250 0.562500
vt 0.937500 0.562500
vt 0.937500 0.687500
vt 0.875000 0.500000
vt 0.875000 0.562500
vt 0.937500 0.500000
vt 0.125000 0.750000
vt 0.125000 0.687500
vt 0.062500 0.875000
vt 0.000000 0.875000
vt 0.000000 0.812500
vt 0.031250 0.812500
vt 0.093750 0.750000
vt 0.093750 0.812500
vt 0.125000 0.812500
vt 0.125000 0.875000
vt 0.468750 0.750000
vt 0.468750 0.687500
vt 0.531250 0.687500
vt 0.531250 0.812500
vt 0.875000 0.812500
vt 0.875000 0.687500
vt 0.937500 0.812500
vt 0.687500 0.625000
vt 0.687500 0.500000
vt 0.625000 0.812500
vt 0.562500 0.687500
vt 0.593750 0.687500
vt 0.593750 0.750000
vt 0.625000 0.750000
vt 0.093750 0.687500
vt 0.093750 0.562500
vt 0.625000 0.625000
vt 0.656250 0.625000
vt 0.656250 0.750000
vt 0.062500 0.937500
vt 0.625000 0.500000
vt 0.093750 0.500000
vt 0.156250 0.500000
vt 0.218750 0.500000
vt 0.968750 0.500000
vt 0.031250 0.500000
vt 0.843750 0.812500
vt 0.812500 0.812500
vt 0.656250 0.875000
vt 0.656250 0.812500
vt 1.000000 0.812500
vn -0.0000 0.5427 0.8399
vn 0.3435 0.9168 0.2037
vn -0.0276 0.9596 -0.2799
vn -0.3793 0.3744 0.8462
vn 0.4803 0.6832 0.5500
vn -0.1669 0.1905 -0.9674
vn -0.4828 0.3787 -0.7896
vn 0.7038 0.0962 0.7038
vn 0.9071 0.1896 0.3757
vn -0.7582 0.6344 0.1508
vn 0.1065 0.9028 0.4168
vn 0.3809 0.0962 0.9196
vn -0.9329 0.3600 -0.0000
vn 0.9580 0.1288 -0.2561
vn 0.9904 0.0975 0.0976
vn -0.0625 0.5509 -0.8322
vn -0.8536 0.3827 -0.3536
vn -0.5549 0.0487 -0.8305
vn -0.8305 0.0487 -0.5549
vn -0.3506 0.6684 0.6559
vn -0.4910 0.8471 0.2034
vn 0.7169 0.6963 -0.0350
vn -0.5834 0.7125 -0.3898
vn 0.1922 0.1703 -0.9665
vn 0.6234 0.7358 -0.2647
vn -0.6597 0.3600 0.6597
vn -0.6427 0.6344 0.4295
vn -0.8619 0.3600 0.3570
vn 0.6242 0.5243 -0.5792
vn 0.0000 1.0000 -0.0000
vn -0.3129 0.8082 0.4990
vn 0.8161 0.1915 -0.5453
vn -0.7038 0.0961 0.7038
vn 0.3155 0.5659 -0.7617
vn 0.5929 0.7669 0.2456
vn -0.0000 0.1896 0.9819
vn -0.9954 0.0961 -0.0000
vn -0.1494 0.9631 0.2237
vn 0.5475 0.1703 -0.8193
vn -0.4233 0.7032 -0.5712
vn 0.1391 0.7784 0.6122
vn 0.1805 0.8213 -0.5412
vn 0.3819 0.3581 0.8520
vn 0.6366 0.3744 0.6742
vn -0.9524 0.0975 -0.2889
vn -0.3809 0.0961 0.9196
vn 0.3497 0.9218 -0.1675
vn -0.3311 0.9316 -0.1497
vn -0.0941 0.8400 -0.5343
vn 0.9099 0.4117 -0.0499
vn 0.7760 0.5427 0.3214
vn -0.6781 0.7236 -0.1287
vn -0.6533 0.3827 -0.6533
vn -0.9196 0.0961 0.3809
vn 0.0000 -1.0000 0.0000
usemtl None
s off
f 62/1/1 63/2/1 54/3/1 53/4/1 52/5/1 61/6/1
f 43/7/2 44/8/2 45/9/2 36/10/2 30/11/2 29/12/2 26/13/2 25/14/2 42/15/2
f 104/16/3 4/17/3 5/18/3 115/19/3 105/20/3
f 66/21/4 67/22/4 64/23/4 63/2/4 62/1/4
f 36/10/5 45/9/5 46/24/5 50/25/5 51/26/5 47/27/5 38/28/5 37/29/5
f 1/30/6 114/31/6 113/32/6 112/33/6 117/34/6
f 108/35/7 107/36/7 111/37/7 112/33/7 113/32/7
f 40/38/8 48/39/8 49/40/8 41/41/8
f 40/38/9 41/41/9 35/42/9 34/43/9 33/44/9 39/45/9
f 83/46/10 89/47/10 90/48/10 84/49/10 81/50/10 80/51/10
f 58/52/11 59/53/11 60/54/11 45/9/11 44/8/11 43/7/11 42/15/11 57/55/11
f 48/39/12 55/56/12 56/57/12 49/40/12
f 91/58/13 92/59/13 85/60/13 84/49/13 90/61/13
f 24/62/14 27/63/14 28/64/14 20/65/14 19/66/14 23/67/14
f 28/64/15 27/63/15 34/43/15 35/42/15
f 117/34/16 112/33/16 111/37/16 110/68/16 116/69/16 2/70/16 3/71/16
f 98/72/17 99/73/17 96/74/17 92/59/17 91/58/17 95/75/17
f 108/35/18 113/32/18 114/31/18 103/76/18 102/77/18
f 99/73/19 102/77/19 103/76/19 97/78/19 96/74/19
f 61/6/20 71/79/20 72/80/20 66/21/20 62/1/20
f 79/81/21 87/82/21 88/83/21 82/84/21 83/46/21 80/51/21 74/85/21 73/86/21 70/87/21 69/88/21
f 31/89/22 32/90/22 22/91/22 21/92/22 30/11/22
f 100/93/23 101/94/23 98/72/23 95/75/23 94/95/23
f 6/96/24 7/97/24 1/30/24 117/34/24 3/71/24
f 12/98/25 21/92/25 22/91/25 18/99/25 17/100/25 16/101/25 13/102/25
f 75/103/26 76/104/26 67/22/26 66/21/26 72/80/26
f 74/85/27 80/51/27 81/50/27 75/103/27 72/80/27 71/79/27
f 84/49/28 85/60/28 76/104/28 75/103/28 81/50/28
f 13/102/29 16/101/29 17/100/29 18/99/29 19/66/29 14/105/29 11/106/29 10/107/29
f 104/16/30 78/108/30 57/55/30 42/15/30 25/14/30 4/17/30
f 59/53/31 69/88/31 70/87/31 73/86/31 74/85/31 71/79/31 61/6/31 60/54/31
f 19/66/32 20/65/32 15/109/32 14/105/32
f 67/22/33 76/104/33 77/110/33 68/111/33
f 10/107/34 11/106/34 6/96/34 3/71/34 2/70/34
f 30/11/35 36/10/35 37/29/35 31/89/35
f 64/23/36 65/112/36 56/57/36 55/56/36 54/3/36 63/2/36
f 85/60/37 92/59/37 93/113/37 86/114/37
f 57/55/38 78/108/38 79/81/38 69/88/38 59/53/38 58/52/38
f 14/105/39 15/109/39 7/97/39 6/96/39 11/106/39
f 110/68/40 111/37/40 107/36/40 101/94/40 100/93/40 106/115/40 109/116/40
f 45/9/41 60/54/41 61/6/41 52/5/41 53/4/41 51/26/41 50/25/41 46/24/41
f 5/18/42 8/117/42 9/118/42 12/98/42 13/102/42 10/107/42 2/70/42 116/69/42 115/19/42
f 54/3/43 55/56/43 48/39/43 47/27/43 51/26/43 53/4/43
f 47/27/44 48/39/44 40/38/44 39/45/44 38/28/44
f 93/113/45 92/59/45 96/74/45 97/78/45
f 64/23/46 67/22/46 68/111/46 65/112/46
f 4/17/47 25/14/47 26/13/47 29/12/47 30/11/47 21/92/47 12/98/47 9/118/47 8/117/47 5/18/47
f 78/108/48 104/16/48 105/20/48 106/115/48 100/93/48 94/95/48 88/119/48 87/82/48 79/81/48
f 105/20/49 115/19/49 116/69/49 110/68/49 109/116/49 106/115/49
f 33/44/50 34/43/50 27/63/50 24/62/50 23/67/50 19/66/50 18/99/50 22/91/50 32/90/50
f 38/28/51 39/45/51 33/44/51 32/90/51 31/89/51 37/29/51
f 88/119/52 94/95/52 95/75/52 91/58/52 90/61/52 89/47/52 83/46/52 82/84/52
f 107/36/53 108/35/53 102/77/53 99/73/53 98/72/53 101/94/53
f 76/104/54 85/60/54 86/114/54 77/110/54
f 1/30/55 7/97/55 15/109/55 20/65/55 28/64/55 35/42/55 41/41/55 49/40/55 56/57/55 65/112/55 68/111/55 77/110/55 86/114/55 93/113/55 97/78/55 103/76/55 114/31/55
